<svg width="18" height="15" viewBox="0 0 18 15" fill="none" xmlns="http://www.w3.org/2000/svg">
<path fill-rule="evenodd" clip-rule="evenodd" d="M0.18251 3.69151C-0.0825827 6.15593 -0.0712214 8.9981 0.298015 11.453C0.397444 12.1127 0.715832 12.7197 1.20198 13.1765C1.68812 13.6332 2.31376 13.9132 2.97829 13.9714L4.4079 14.0945C7.39019 14.3539 10.3876 14.3539 13.3699 14.0945L14.7995 13.9714C15.4641 13.9132 16.0897 13.6332 16.5758 13.1765C17.062 12.7197 17.3804 12.1127 17.4798 11.453C17.849 8.9981 17.8604 6.15593 17.5953 3.69151C17.5611 3.40566 17.5226 3.12033 17.4798 2.83564C17.3804 2.17603 17.062 1.56902 16.5758 1.11224C16.0897 0.655459 15.4641 0.375458 14.7995 0.317265L13.3699 0.194186C10.3885 -0.0647288 7.39026 -0.0647288 4.40884 0.194186L2.97924 0.317265C2.31454 0.375256 1.68868 0.655167 1.20234 1.11196C0.716011 1.56876 0.397485 2.17588 0.298015 2.83564C0.255095 3.12093 0.216593 3.40622 0.18251 3.69151ZM4.53097 1.60864C7.43045 1.3559 10.3464 1.3559 13.2459 1.60864L14.6755 1.73267C15.0226 1.76297 15.3494 1.90914 15.6034 2.14766C15.8574 2.38618 16.0237 2.7032 16.0758 3.04772L16.1079 3.26831L10.843 6.1938C10.2453 6.52589 9.57272 6.70016 8.88891 6.70016C8.20509 6.70016 7.53256 6.52589 6.9348 6.1938L1.66987 3.26831L1.70206 3.04772C1.75402 2.70335 1.92026 2.38644 2.17404 2.14794C2.42783 1.90943 2.75444 1.76317 3.10137 1.73267L4.53097 1.60864ZM16.2812 4.79638C16.4661 6.94519 16.3971 9.1083 16.0758 11.241C16.0238 11.5853 15.8576 11.9022 15.6038 12.1408C15.35 12.3793 15.0234 12.5255 14.6764 12.556L13.2468 12.68C10.3471 12.9328 7.43076 12.9328 4.53097 12.68L3.10137 12.556C2.75444 12.5255 2.42783 12.3793 2.17404 12.1408C1.92026 11.9022 1.75402 11.5853 1.70206 11.241C1.38038 9.10834 1.3111 6.94523 1.49566 4.79638L6.24461 7.435C7.05335 7.88431 7.96326 8.1201 8.88843 8.1201C9.81361 8.1201 10.7235 7.88431 11.5323 7.435L16.2812 4.79638Z" fill="#3F2F70"/>
</svg>
