<svg width="18" height="20" viewBox="0 0 18 20" fill="none" xmlns="http://www.w3.org/2000/svg">
<path d="M14.5242 2.52558C13.6529 1.74156 12.624 1.15302 11.5064 0.799472C10.3889 0.445921 9.20868 0.335542 8.04497 0.475745C6.53853 0.653095 5.10964 1.24044 3.91396 2.17379C2.71827 3.10714 1.80163 4.35071 1.2639 5.76904C0.726167 7.18737 0.587956 8.72607 0.864323 10.2175C1.14069 11.709 1.82104 13.096 2.83125 14.2275L6.70812 18.55C6.9966 18.8749 7.35069 19.135 7.74703 19.3132C8.14337 19.4913 8.57297 19.5834 9.0075 19.5834C9.44204 19.5834 9.87163 19.4913 10.268 19.3132C10.6643 19.135 11.0184 18.8749 11.3069 18.55L15.1838 14.2275C16.6456 12.5871 17.3972 10.4339 17.2735 8.24017C17.1499 6.04643 16.1612 3.99129 14.5242 2.52558V2.52558ZM9.0075 18.247C8.76028 18.2451 8.51613 18.1919 8.29059 18.0906C8.06504 17.9894 7.86303 17.8423 7.69739 17.6587L3.82943 13.3363C2.97942 12.3888 2.40624 11.2258 2.17258 9.97454C1.93891 8.72326 2.05374 7.43184 2.50451 6.24142C2.95529 5.05101 3.72466 4.00744 4.72851 3.22478C5.73237 2.44212 6.93208 1.95051 8.19648 1.80368V1.80368C8.47276 1.80368 8.74905 1.80368 9.02533 1.80368C10.7289 1.80691 12.3708 2.44204 13.633 3.58615C15.0043 4.81412 15.8326 6.53585 15.9362 8.3737C16.0398 10.2115 15.4102 12.0154 14.1856 13.3897L10.3176 17.7122C10.1473 17.8861 9.94322 18.0232 9.7179 18.1152C9.49258 18.2071 9.25082 18.252 9.0075 18.247V18.247ZM9.0075 5.18146C8.30054 5.18152 7.60956 5.39177 7.02238 5.78549C6.4352 6.17922 5.97835 6.73864 5.70988 7.39265C5.44142 8.04665 5.37347 8.76572 5.51468 9.45843C5.65588 10.1512 5.99986 10.7862 6.50289 11.283C7.00593 11.7797 7.6453 12.1157 8.33974 12.2482C9.03418 12.3807 9.75233 12.3037 10.4029 12.027C11.0535 11.7503 11.6071 11.2865 11.9934 10.6944C12.3797 10.1023 12.5813 9.40874 12.5724 8.70184C12.5607 7.7641 12.18 6.86875 11.5127 6.2098C10.8454 5.55085 9.94531 5.18139 9.0075 5.18146ZM9.0075 10.8943C8.57351 10.896 8.14875 10.769 7.78703 10.5291C7.42532 10.2893 7.14292 9.94749 6.97561 9.54704C6.80831 9.14658 6.76361 8.70548 6.8472 8.2796C6.93079 7.85373 7.13889 7.46224 7.44515 7.15473C7.75141 6.84722 8.14205 6.63752 8.56758 6.5522C8.99311 6.46688 9.43439 6.50978 9.83553 6.67545C10.2367 6.84113 10.5796 7.12213 10.8209 7.48286C11.0622 7.8436 11.191 8.26783 11.191 8.70184C11.191 9.28176 10.9613 9.83807 10.552 10.249C10.1428 10.6599 9.58743 10.8919 9.0075 10.8943Z" fill="#3F2F70"/>
</svg>
