<svg width="18" height="18" viewBox="0 0 18 18" fill="none" xmlns="http://www.w3.org/2000/svg">
<path d="M17.5349 6.44056C17.3604 3.31594 15.0419 0.872762 12.2414 0.872762H8.0863C7.83513 0.612315 7.53448 0.404649 7.20199 0.261947C6.86949 0.119246 6.51185 0.044382 6.15003 0.041748H4.48801C3.90532 0.0428268 3.3286 0.159079 2.79101 0.383821C2.25341 0.608562 1.76554 0.937359 1.35546 1.3513C0.945377 1.76525 0.621167 2.25618 0.401474 2.79585C0.181781 3.33553 0.0709383 3.91332 0.0753203 4.49598V12.9723C0.0753203 14.2947 0.600639 15.563 1.53571 16.498C2.47078 17.4331 3.73901 17.9584 5.06141 17.9584H12.9394C14.2618 17.9584 15.53 17.4331 16.4651 16.498C17.4002 15.563 17.9255 14.2947 17.9255 12.9723V8.51809C17.8646 7.81434 17.7337 7.1184 17.5349 6.44056ZM12.2414 2.06111C12.9906 2.08554 13.7183 2.31758 14.3434 2.73137C14.9685 3.14515 15.4663 3.72441 15.7815 4.40457C14.9523 3.81988 13.9623 3.50635 12.9477 3.50708H10.4547C10.1427 3.5045 9.83856 3.40906 9.58103 3.23294C9.3235 3.05681 9.12427 2.80798 9.00872 2.51817L8.8259 2.06111H12.2414ZM16.7538 12.9723C16.7538 13.9833 16.3533 14.9531 15.64 15.6695C14.9267 16.3859 13.9587 16.7906 12.9477 16.795H5.06972C4.05877 16.7906 3.09072 16.3859 2.37742 15.6695C1.66412 14.9531 1.26366 13.9833 1.26367 12.9723V4.49598C1.26367 3.64007 1.60311 2.81909 2.20755 2.21309C2.81199 1.60709 3.6321 1.26554 4.48801 1.26334H6.15003C6.46485 1.26261 6.77263 1.3565 7.03343 1.53283C7.29423 1.70917 7.49602 1.95981 7.61262 2.25225L7.89516 2.95861C8.09864 3.47358 8.45235 3.91541 8.91031 4.22665C9.36827 4.53788 9.90929 4.70412 10.463 4.70374H12.956C13.9662 4.70594 14.9343 5.10878 15.6478 5.82387C16.3614 6.53896 16.7621 7.5079 16.7621 8.51809L16.7538 12.9723Z" fill="#3F2F70"/>
<path d="M11.9339 9.76463C11.8811 9.82759 11.8164 9.8795 11.7435 9.91735C11.6706 9.95521 11.5909 9.97828 11.5091 9.98523C11.4272 9.99218 11.3448 9.98288 11.2665 9.95786C11.1882 9.93283 11.1157 9.89258 11.0531 9.83942L9.72344 8.676V12.9225C9.72344 13.0878 9.65777 13.2463 9.54089 13.3632C9.424 13.4801 9.26547 13.5457 9.10018 13.5457C8.93488 13.5457 8.77635 13.4801 8.65946 13.3632C8.54258 13.2463 8.47692 13.0878 8.47692 12.9225V8.61783L6.93954 9.88098C6.81472 9.97426 6.6588 10.0159 6.50408 9.99738C6.34936 9.97881 6.20773 9.90142 6.10853 9.78125C6.00566 9.6494 5.9585 9.48252 5.97713 9.31633C5.99577 9.15015 6.07873 8.99786 6.20825 8.89207L8.7096 6.80622L8.80101 6.75636L8.8758 6.71481C9.0202 6.65909 9.18016 6.65909 9.32455 6.71481L9.40765 6.76467L9.50737 6.82284L11.8675 8.87545C11.992 8.98589 12.0687 9.14053 12.0811 9.30655C12.0935 9.47257 12.0407 9.63689 11.9339 9.76463Z" fill="#3F2F70"/>
</svg>
