<svg width="20" height="18" viewBox="0 0 20 18" fill="none" xmlns="http://www.w3.org/2000/svg">
<path d="M9.73536 0.55835C10.5411 0.562517 11.3209 0.845401 11.9424 1.35815C12.5638 1.8709 12.9893 2.58263 13.1465 3.3728H13.6924C14.5334 3.37654 15.3493 3.6587 16.0127 4.17554C16.6761 4.6924 17.1501 5.41471 17.3594 6.22925C17.4011 6.39423 17.3752 6.56936 17.2881 6.71558C17.201 6.86172 17.0594 6.96766 16.8945 7.00952C16.7295 7.05134 16.5545 7.02529 16.4082 6.93823C16.262 6.85113 16.1562 6.70966 16.1143 6.54468C15.9773 6.0024 15.6625 5.52149 15.2207 5.17847C14.7788 4.83543 14.2343 4.64931 13.6748 4.65112H4.63673C3.96568 4.65103 3.3213 4.91506 2.84278 5.3855C2.36429 5.85601 2.08937 6.49578 2.07813 7.16675C2.08668 7.19453 2.08668 7.2249 2.07813 7.25269V13.6052C2.07821 14.2835 2.34761 14.9342 2.82716 15.4138C3.3069 15.8936 3.95827 16.1628 4.63673 16.1628H13.7012C14.2408 16.157 14.7649 15.9805 15.1983 15.6589C15.6314 15.3374 15.9524 14.8874 16.1143 14.3728C16.1654 14.2128 16.2769 14.0783 16.4248 13.9988C16.5727 13.9194 16.7457 13.9005 16.9072 13.946C17.0688 13.997 17.2039 14.1103 17.2822 14.2605C17.3604 14.4107 17.376 14.5862 17.3252 14.7478C17.0915 15.5287 16.6107 16.2133 15.9561 16.699C15.3015 17.1844 14.5073 17.445 13.6924 17.4421H4.62794C4.12851 17.441 3.63385 17.3413 3.17286 17.1492C2.71202 16.957 2.29368 16.6759 1.94142 16.322C1.58906 15.9681 1.30924 15.5485 1.11915 15.0867C0.929087 14.6249 0.831909 14.13 0.833017 13.6306V4.07983C0.837595 3.14584 1.21181 2.2512 1.87306 1.59155C2.53428 0.932077 3.42942 0.560666 4.36329 0.55835H9.73536ZM17.7344 8.02026C18.1098 8.02026 18.4704 8.16732 18.7383 8.43042C19.0061 8.6935 19.1602 9.05117 19.167 9.42651V11.3621C19.167 11.742 19.0157 12.1071 18.7471 12.3757C18.4785 12.6442 18.1141 12.7946 17.7344 12.7947H15.918C15.2847 12.7947 14.6773 12.5432 14.2295 12.0955C13.7818 11.6477 13.5303 11.0401 13.5303 10.407C13.5304 9.77401 13.782 9.16713 14.2295 8.71948C14.6773 8.27172 15.2847 8.02026 15.918 8.02026H17.7344ZM15.918 9.29858C15.624 9.29858 15.3417 9.41589 15.1338 9.62378C14.9262 9.83155 14.8097 10.1132 14.8096 10.407C14.8096 10.7009 14.926 10.9833 15.1338 11.1912C15.3417 11.3991 15.624 11.5164 15.918 11.5164H17.7344C17.775 11.5163 17.8141 11.4992 17.8428 11.4705C17.8714 11.4417 17.8877 11.4026 17.8877 11.3621V9.4519C17.8876 9.41135 17.8715 9.37219 17.8428 9.34351C17.8141 9.31484 17.775 9.29864 17.7344 9.29858H15.918ZM9.90626 7.15015C10.0757 7.15023 10.2386 7.21688 10.3584 7.33667C10.4783 7.45661 10.5459 7.62018 10.5459 7.78979C10.5458 7.95925 10.4782 8.12211 10.3584 8.24194C10.2386 8.36177 10.0757 8.42838 9.90626 8.42847H4.65333C4.48385 8.42847 4.32109 8.36171 4.20118 8.24194C4.08135 8.12211 4.0138 7.95925 4.01368 7.78979C4.01368 7.62018 4.08125 7.45661 4.20118 7.33667C4.32109 7.21694 4.48387 7.15015 4.65333 7.15015H9.90626ZM4.36329 1.83765C3.76864 1.83995 3.1987 2.07624 2.77735 2.49585C2.35598 2.91563 2.11688 3.48507 2.11231 4.07983L2.07813 4.41284C2.07813 4.41284 2.50495 3.3728 4.63673 3.3728H11.833C11.6865 2.92389 11.4008 2.53251 11.0176 2.25659C10.6345 1.98088 10.1732 1.83424 9.70118 1.83765H4.36329Z" fill="#3F2F70"/>
</svg>
